<mxfile host="Electron" modified="2023-04-22T10:01:35.896Z" agent="Mozilla/5.0 (Windows NT 10.0; Win64; x64) AppleWebKit/537.36 (KHTML, like Gecko) draw.io/21.1.2 Chrome/106.0.5249.199 Electron/21.4.3 Safari/537.36" etag="n3cFuf8En-2_uaDP6VC2" version="21.1.2" type="device" pages="2">
  <diagram name="Page-1" id="fQAEWsKuhgdsTd0qbelY">
    <mxGraphModel dx="2908" dy="822" grid="1" gridSize="10" guides="1" tooltips="1" connect="1" arrows="1" fold="1" page="1" pageScale="1" pageWidth="850" pageHeight="1100" math="0" shadow="0">
      <root>
        <mxCell id="0" />
        <mxCell id="1" parent="0" />
        <mxCell id="_YsFc9DdC3Ga84QTvGv1-1" value="&lt;pre style=&quot;background-color: rgb(255, 255, 255); color: rgb(8, 8, 8); font-size: 16px;&quot;&gt;&lt;p style=&quot;&quot;&gt;&lt;br&gt;&lt;/p&gt;&lt;p&gt;&lt;/p&gt;&lt;/pre&gt;" style="shape=note;whiteSpace=wrap;html=1;backgroundOutline=1;darkOpacity=0.05;align=left;spacingTop=1;spacingLeft=11;" vertex="1" parent="1">
          <mxGeometry x="-450" y="40" width="410" height="690" as="geometry" />
        </mxCell>
        <mxCell id="_YsFc9DdC3Ga84QTvGv1-23" style="edgeStyle=orthogonalEdgeStyle;rounded=0;orthogonalLoop=1;jettySize=auto;html=1;entryX=0;entryY=0.156;entryDx=0;entryDy=0;entryPerimeter=0;" edge="1" parent="1" source="_YsFc9DdC3Ga84QTvGv1-8" target="_YsFc9DdC3Ga84QTvGv1-22">
          <mxGeometry relative="1" as="geometry">
            <Array as="points">
              <mxPoint x="215" y="290" />
              <mxPoint x="425" y="290" />
              <mxPoint x="425" y="185" />
            </Array>
          </mxGeometry>
        </mxCell>
        <mxCell id="_YsFc9DdC3Ga84QTvGv1-8" value="/bin/sh -c sleep 2 &amp;amp;&amp;amp; apt-get update" style="shape=cube;whiteSpace=wrap;html=1;boundedLbl=1;backgroundOutline=1;darkOpacity=0.05;darkOpacity2=0.1;" vertex="1" parent="1">
          <mxGeometry x="80" y="192.5" width="270" height="75" as="geometry" />
        </mxCell>
        <mxCell id="_YsFc9DdC3Ga84QTvGv1-11" value="" style="rounded=0;whiteSpace=wrap;html=1;" vertex="1" parent="1">
          <mxGeometry x="500" y="110" width="320" height="690" as="geometry" />
        </mxCell>
        <mxCell id="_YsFc9DdC3Ga84QTvGv1-20" style="edgeStyle=orthogonalEdgeStyle;rounded=0;orthogonalLoop=1;jettySize=auto;html=1;" edge="1" parent="1" source="_YsFc9DdC3Ga84QTvGv1-12" target="_YsFc9DdC3Ga84QTvGv1-8">
          <mxGeometry relative="1" as="geometry">
            <Array as="points">
              <mxPoint x="185" y="160" />
            </Array>
          </mxGeometry>
        </mxCell>
        <mxCell id="_YsFc9DdC3Ga84QTvGv1-12" value="ubuntu layer" style="rounded=0;whiteSpace=wrap;html=1;" vertex="1" parent="1">
          <mxGeometry x="500" y="110" width="320" height="50" as="geometry" />
        </mxCell>
        <mxCell id="_YsFc9DdC3Ga84QTvGv1-13" value="FROM ubuntu:latest" style="text;html=1;align=center;verticalAlign=middle;resizable=0;points=[];autosize=1;strokeColor=none;fillColor=none;" vertex="1" parent="1">
          <mxGeometry x="-425" y="100" width="130" height="30" as="geometry" />
        </mxCell>
        <mxCell id="_YsFc9DdC3Ga84QTvGv1-15" value="" style="endArrow=classic;html=1;rounded=0;entryX=0;entryY=0.25;entryDx=0;entryDy=0;" edge="1" parent="1" source="_YsFc9DdC3Ga84QTvGv1-13" target="_YsFc9DdC3Ga84QTvGv1-12">
          <mxGeometry width="50" height="50" relative="1" as="geometry">
            <mxPoint x="400" y="270" as="sourcePoint" />
            <mxPoint x="450" y="220" as="targetPoint" />
          </mxGeometry>
        </mxCell>
        <mxCell id="_YsFc9DdC3Ga84QTvGv1-16" value="copy from registry" style="text;html=1;align=center;verticalAlign=middle;resizable=0;points=[];autosize=1;strokeColor=none;fillColor=none;" vertex="1" parent="1">
          <mxGeometry x="60" y="85" width="120" height="30" as="geometry" />
        </mxCell>
        <mxCell id="_YsFc9DdC3Ga84QTvGv1-18" style="edgeStyle=orthogonalEdgeStyle;rounded=0;orthogonalLoop=1;jettySize=auto;html=1;entryX=0;entryY=0;entryDx=0;entryDy=27.5;entryPerimeter=0;" edge="1" parent="1" source="_YsFc9DdC3Ga84QTvGv1-17" target="_YsFc9DdC3Ga84QTvGv1-8">
          <mxGeometry relative="1" as="geometry">
            <Array as="points">
              <mxPoint x="-150" y="220" />
              <mxPoint x="-150" y="220" />
            </Array>
          </mxGeometry>
        </mxCell>
        <mxCell id="_YsFc9DdC3Ga84QTvGv1-17" value="RUN sleep 2 &amp;amp;&amp;amp; apt-get update" style="text;html=1;align=center;verticalAlign=middle;resizable=0;points=[];autosize=1;strokeColor=none;fillColor=none;" vertex="1" parent="1">
          <mxGeometry x="-425" y="210" width="190" height="30" as="geometry" />
        </mxCell>
        <mxCell id="_YsFc9DdC3Ga84QTvGv1-21" value="mount temp bunde" style="text;html=1;align=center;verticalAlign=middle;resizable=0;points=[];autosize=1;strokeColor=none;fillColor=none;" vertex="1" parent="1">
          <mxGeometry x="260" y="130" width="120" height="30" as="geometry" />
        </mxCell>
        <mxCell id="_YsFc9DdC3Ga84QTvGv1-22" value="layer 1" style="rounded=0;whiteSpace=wrap;html=1;" vertex="1" parent="1">
          <mxGeometry x="500" y="160" width="320" height="200" as="geometry" />
        </mxCell>
        <mxCell id="_YsFc9DdC3Ga84QTvGv1-24" value="save dif to layer" style="text;html=1;align=center;verticalAlign=middle;resizable=0;points=[];autosize=1;strokeColor=none;fillColor=none;" vertex="1" parent="1">
          <mxGeometry x="320" y="267.5" width="110" height="30" as="geometry" />
        </mxCell>
        <mxCell id="_YsFc9DdC3Ga84QTvGv1-25" value="RUN sleep 2 &amp;amp;&amp;amp; apt-get install python3" style="text;html=1;align=center;verticalAlign=middle;resizable=0;points=[];autosize=1;strokeColor=none;fillColor=none;" vertex="1" parent="1">
          <mxGeometry x="-445" y="400" width="230" height="30" as="geometry" />
        </mxCell>
        <mxCell id="_YsFc9DdC3Ga84QTvGv1-26" value="/bin/sh -c sleep 2 &amp;amp;&amp;amp; apt-get update" style="shape=cube;whiteSpace=wrap;html=1;boundedLbl=1;backgroundOutline=1;darkOpacity=0.05;darkOpacity2=0.1;" vertex="1" parent="1">
          <mxGeometry x="80" y="192.5" width="270" height="75" as="geometry" />
        </mxCell>
        <mxCell id="_YsFc9DdC3Ga84QTvGv1-27" style="edgeStyle=orthogonalEdgeStyle;rounded=0;orthogonalLoop=1;jettySize=auto;html=1;entryX=0;entryY=0.5;entryDx=0;entryDy=0;" edge="1" parent="1">
          <mxGeometry relative="1" as="geometry">
            <mxPoint x="215" y="468" as="sourcePoint" />
            <mxPoint x="500" y="385" as="targetPoint" />
            <Array as="points">
              <mxPoint x="215" y="490" />
              <mxPoint x="425" y="490" />
              <mxPoint x="425" y="385" />
            </Array>
          </mxGeometry>
        </mxCell>
        <mxCell id="_YsFc9DdC3Ga84QTvGv1-28" style="edgeStyle=orthogonalEdgeStyle;rounded=0;orthogonalLoop=1;jettySize=auto;html=1;" edge="1" parent="1">
          <mxGeometry relative="1" as="geometry">
            <mxPoint x="500" y="360" as="sourcePoint" />
            <mxPoint x="185" y="393" as="targetPoint" />
            <Array as="points">
              <mxPoint x="185" y="360" />
            </Array>
          </mxGeometry>
        </mxCell>
        <mxCell id="_YsFc9DdC3Ga84QTvGv1-29" style="edgeStyle=orthogonalEdgeStyle;rounded=0;orthogonalLoop=1;jettySize=auto;html=1;entryX=0;entryY=0;entryDx=0;entryDy=27.5;entryPerimeter=0;" edge="1" parent="1">
          <mxGeometry relative="1" as="geometry">
            <mxPoint x="-210" y="420" as="sourcePoint" />
            <mxPoint x="80" y="420" as="targetPoint" />
            <Array as="points">
              <mxPoint x="-150" y="420" />
              <mxPoint x="-150" y="420" />
            </Array>
          </mxGeometry>
        </mxCell>
        <mxCell id="_YsFc9DdC3Ga84QTvGv1-30" value="mount temp bunde" style="text;html=1;align=center;verticalAlign=middle;resizable=0;points=[];autosize=1;strokeColor=none;fillColor=none;" vertex="1" parent="1">
          <mxGeometry x="260" y="330" width="120" height="30" as="geometry" />
        </mxCell>
        <mxCell id="_YsFc9DdC3Ga84QTvGv1-31" value="/bin/sh -c sleep 2 &amp;amp;&amp;amp; apt-get install python3" style="shape=cube;whiteSpace=wrap;html=1;boundedLbl=1;backgroundOutline=1;darkOpacity=0.05;darkOpacity2=0.1;" vertex="1" parent="1">
          <mxGeometry x="80" y="392.5" width="270" height="75" as="geometry" />
        </mxCell>
        <mxCell id="_YsFc9DdC3Ga84QTvGv1-32" value="layer 2" style="rounded=0;whiteSpace=wrap;html=1;" vertex="1" parent="1">
          <mxGeometry x="500" y="360" width="320" height="200" as="geometry" />
        </mxCell>
        <mxCell id="_YsFc9DdC3Ga84QTvGv1-33" value="layer3" style="rounded=0;whiteSpace=wrap;html=1;" vertex="1" parent="1">
          <mxGeometry x="500" y="560" width="320" height="200" as="geometry" />
        </mxCell>
        <mxCell id="_YsFc9DdC3Ga84QTvGv1-34" value="save dif to layer" style="text;html=1;align=center;verticalAlign=middle;resizable=0;points=[];autosize=1;strokeColor=none;fillColor=none;" vertex="1" parent="1">
          <mxGeometry x="320" y="480" width="110" height="30" as="geometry" />
        </mxCell>
        <mxCell id="_YsFc9DdC3Ga84QTvGv1-36" style="edgeStyle=orthogonalEdgeStyle;rounded=0;orthogonalLoop=1;jettySize=auto;html=1;entryX=-0.016;entryY=0.325;entryDx=0;entryDy=0;entryPerimeter=0;" edge="1" parent="1" source="_YsFc9DdC3Ga84QTvGv1-35" target="_YsFc9DdC3Ga84QTvGv1-33">
          <mxGeometry relative="1" as="geometry" />
        </mxCell>
        <mxCell id="_YsFc9DdC3Ga84QTvGv1-35" value="COPY imgs ." style="text;html=1;align=center;verticalAlign=middle;resizable=0;points=[];autosize=1;strokeColor=none;fillColor=none;" vertex="1" parent="1">
          <mxGeometry x="-430" y="610" width="90" height="30" as="geometry" />
        </mxCell>
        <mxCell id="_YsFc9DdC3Ga84QTvGv1-37" value="copy from build dir" style="text;html=1;align=center;verticalAlign=middle;resizable=0;points=[];autosize=1;strokeColor=none;fillColor=none;" vertex="1" parent="1">
          <mxGeometry x="80" y="600" width="120" height="30" as="geometry" />
        </mxCell>
      </root>
    </mxGraphModel>
  </diagram>
  <diagram id="YGqlbq0m5laamM_6HsqT" name="Page-2">
    <mxGraphModel dx="2058" dy="822" grid="1" gridSize="10" guides="1" tooltips="1" connect="1" arrows="1" fold="1" page="1" pageScale="1" pageWidth="850" pageHeight="1100" math="0" shadow="0">
      <root>
        <mxCell id="0" />
        <mxCell id="1" parent="0" />
        <mxCell id="vR0YpjPXeKT_Gb-V9K6A-6" value="" style="edgeStyle=orthogonalEdgeStyle;rounded=0;orthogonalLoop=1;jettySize=auto;html=1;" edge="1" parent="1" source="vR0YpjPXeKT_Gb-V9K6A-1" target="vR0YpjPXeKT_Gb-V9K6A-2">
          <mxGeometry relative="1" as="geometry" />
        </mxCell>
        <mxCell id="vR0YpjPXeKT_Gb-V9K6A-1" value="FROM ubuntu:latest" style="rounded=0;whiteSpace=wrap;html=1;" vertex="1" parent="1">
          <mxGeometry x="170" y="70" width="370" height="60" as="geometry" />
        </mxCell>
        <mxCell id="vR0YpjPXeKT_Gb-V9K6A-7" value="" style="edgeStyle=orthogonalEdgeStyle;rounded=0;orthogonalLoop=1;jettySize=auto;html=1;" edge="1" parent="1" source="vR0YpjPXeKT_Gb-V9K6A-2" target="vR0YpjPXeKT_Gb-V9K6A-4">
          <mxGeometry relative="1" as="geometry" />
        </mxCell>
        <mxCell id="vR0YpjPXeKT_Gb-V9K6A-2" value="&lt;p style=&quot;background-color: rgb(255, 255, 255); color: rgb(8, 8, 8); font-size: 9.8pt;&quot;&gt;RUN sleep 2 &amp;amp;&amp;amp; apt-get update&lt;/p&gt;" style="rounded=0;whiteSpace=wrap;html=1;" vertex="1" parent="1">
          <mxGeometry x="170" y="190" width="370" height="60" as="geometry" />
        </mxCell>
        <mxCell id="vR0YpjPXeKT_Gb-V9K6A-11" value="" style="edgeStyle=orthogonalEdgeStyle;rounded=0;orthogonalLoop=1;jettySize=auto;html=1;" edge="1" parent="1" source="vR0YpjPXeKT_Gb-V9K6A-3" target="vR0YpjPXeKT_Gb-V9K6A-5">
          <mxGeometry relative="1" as="geometry" />
        </mxCell>
        <mxCell id="vR0YpjPXeKT_Gb-V9K6A-3" value="&lt;p style=&quot;background-color: rgb(255, 255, 255); color: rgb(8, 8, 8); font-size: 9.8pt;&quot;&gt;RUN sleep 2 &amp;amp;&amp;amp; apt-get install python3&lt;/p&gt;" style="rounded=0;whiteSpace=wrap;html=1;fillColor=#f8cecc;strokeColor=#b85450;sketch=1;curveFitting=1;jiggle=2;" vertex="1" parent="1">
          <mxGeometry x="170" y="390" width="370" height="60" as="geometry" />
        </mxCell>
        <mxCell id="vR0YpjPXeKT_Gb-V9K6A-10" value="" style="edgeStyle=orthogonalEdgeStyle;rounded=0;orthogonalLoop=1;jettySize=auto;html=1;" edge="1" parent="1" source="vR0YpjPXeKT_Gb-V9K6A-4" target="vR0YpjPXeKT_Gb-V9K6A-3">
          <mxGeometry relative="1" as="geometry" />
        </mxCell>
        <mxCell id="vR0YpjPXeKT_Gb-V9K6A-4" value="&lt;p style=&quot;color: rgb(8, 8, 8); font-size: 9.8pt;&quot;&gt;RUN sleep 2 &amp;amp;&amp;amp; apt-get install uwsgi&lt;/p&gt;" style="rounded=0;whiteSpace=wrap;html=1;fillColor=#f8cecc;strokeColor=#f8cecc;gradientColor=none;glass=0;sketch=1;curveFitting=1;jiggle=2;" vertex="1" parent="1">
          <mxGeometry x="170" y="280" width="370" height="60" as="geometry" />
        </mxCell>
        <mxCell id="vR0YpjPXeKT_Gb-V9K6A-5" value="&lt;p style=&quot;background-color: rgb(255, 255, 255); color: rgb(8, 8, 8); font-size: 9.8pt;&quot;&gt;COPY imgs .&lt;/p&gt;" style="rounded=0;whiteSpace=wrap;html=1;fillColor=#f8cecc;strokeColor=#b85450;sketch=1;curveFitting=1;jiggle=2;" vertex="1" parent="1">
          <mxGeometry x="170" y="490" width="370" height="60" as="geometry" />
        </mxCell>
        <mxCell id="vR0YpjPXeKT_Gb-V9K6A-12" value="" style="verticalLabelPosition=bottom;verticalAlign=top;html=1;shadow=0;dashed=0;strokeWidth=1;shape=mxgraph.ios.iDeleteApp;fillColor=#cccccc;fillColor2=#000000;strokeColor=#ffffff;sketch=0;" vertex="1" parent="1">
          <mxGeometry x="330" y="350" width="15" height="15" as="geometry" />
        </mxCell>
        <mxCell id="EQ3TCkOnI1BwZcoYTHfr-1" value="" style="verticalLabelPosition=bottom;verticalAlign=top;html=1;shadow=0;dashed=0;strokeWidth=1;shape=mxgraph.ios.iDeleteApp;fillColor=#cccccc;fillColor2=#000000;strokeColor=#ffffff;sketch=0;" vertex="1" parent="1">
          <mxGeometry x="330" y="460" width="15" height="15" as="geometry" />
        </mxCell>
      </root>
    </mxGraphModel>
  </diagram>
</mxfile>
